<?xml version="1.0" standalone="no"?>
<!DOCTYPE svg PUBLIC "-//W3C//DTD SVG 20010904//EN"
 "http://www.w3.org/TR/2001/REC-SVG-20010904/DTD/svg10.dtd">
<svg version="1.0" xmlns="http://www.w3.org/2000/svg"
 width="512.000000pt" height="512.000000pt" viewBox="0 0 512.000000 512.000000"
 preserveAspectRatio="xMidYMid meet">

<g transform="translate(0.000000,512.000000) scale(0.100000,-0.100000)"
fill="#d6d9d9" stroke="none">
<path d="M3894 4600 c-57 -23 -54 30 -54 -1018 l0 -964 29 -29 c34 -33 64 -37
103 -11 57 36 1116 938 1132 964 20 33 20 57 1 85 -20 28 -1110 952 -1145 970
-29 15 -37 15 -66 3z"/>
<path d="M180 3825 c-57 -18 -124 -74 -153 -129 -33 -63 -31 -165 6 -231 30
-54 91 -105 146 -124 50 -16 3462 -16 3479 1 16 16 17 450 2 479 -11 19 -40
19 -1723 18 -1436 0 -1719 -3 -1757 -14z"/>
<path d="M1154 2547 c-35 -20 -1111 -935 -1133 -963 -25 -32 -27 -61 -6 -91
21 -30 1113 -953 1147 -970 34 -18 73 -8 98 24 20 25 20 43 20 990 l0 965 -29
29 c-31 31 -63 36 -97 16z"/>
<path d="M1462 1778 c-17 -17 -17 -457 1 -481 11 -16 122 -17 1742 -15 l1730
3 40 22 c116 62 173 198 130 309 -22 58 -75 118 -129 147 l-41 22 -1730 3
c-1345 2 -1733 0 -1743 -10z"/>
</g>
</svg>
