<?xml version="1.0" standalone="no"?>
<!DOCTYPE svg PUBLIC "-//W3C//DTD SVG 20010904//EN"
 "http://www.w3.org/TR/2001/REC-SVG-20010904/DTD/svg10.dtd">
<svg version="1.0" xmlns="http://www.w3.org/2000/svg"
 width="512.000000pt" height="512.000000pt" viewBox="0 0 512.000000 512.000000"
 preserveAspectRatio="xMidYMid meet">

<g transform="translate(0.000000,512.000000) scale(0.100000,-0.100000)"
fill="#d6d9d9" stroke="none">
<path d="M2795 5105 c-46 -25 -86 -66 -106 -110 -16 -34 -19 -66 -19 -212 l0
-171 -97 -22 c-444 -101 -1003 -364 -1401 -662 -407 -304 -674 -733 -763
-1225 -30 -165 -37 -439 -15 -593 19 -137 29 -150 111 -150 78 0 91 15 119
140 62 275 199 515 415 730 207 205 387 308 669 379 234 60 542 88 773 71 208
-15 189 -1 189 -134 0 -200 24 -279 98 -323 58 -34 156 -39 212 -10 37 18
1115 809 1158 849 127 118 165 354 84 518 -52 105 -108 149 -667 528 -291 198
-550 370 -574 382 -59 29 -146 37 -186 15z"/>
<path d="M4541 3143 c-16 -13 -28 -47 -45 -123 -59 -258 -194 -504 -389 -707
-203 -210 -395 -322 -682 -398 -231 -62 -543 -92 -781 -76 -78 6 -153 13 -168
17 l-26 6 0 112 c0 121 -13 212 -37 263 -32 70 -158 110 -246 80 -29 -10 -242
-160 -599 -422 -304 -224 -566 -419 -581 -434 -97 -89 -150 -253 -127 -394 13
-85 68 -192 127 -248 66 -64 1102 -767 1172 -795 93 -39 149 -31 216 28 66 57
75 89 75 284 l0 171 133 32 c399 98 814 283 1199 537 570 376 872 845 948
1474 14 121 12 348 -5 470 -18 126 -29 140 -110 140 -35 0 -60 -6 -74 -17z"/>
</g>
</svg>
